<svg id="Calque_1" data-name="Calque 1" xmlns="http://www.w3.org/2000/svg" viewBox="0 0 294 127"><defs><style>.cls-1{isolation:isolate;}.cls-2{fill:none;stroke:#fff;stroke-width:3px;}</style></defs><title>title-bilan-s</title><g id="Bilan" class="cls-1"><g class="cls-1"><path class="cls-2" d="M75.86,80c0,12-9.9,19-28.51,19H9.93V29.7H45.37c18.22,0,27.13,7.43,27.13,18.12a16.37,16.37,0,0,1-9.31,15C71,65.64,75.86,71.58,75.86,80ZM29.33,43.86V57.22H42.8c6.53,0,9.9-2.27,9.9-6.73s-3.37-6.63-9.9-6.63Zm26.73,34c0-4.75-3.56-7-10.29-7H29.33v14H45.77C52.5,84.84,56.06,82.57,56.06,77.81Z"/><path class="cls-2" d="M86.56,29.4c0-5.64,4.55-10,11.48-10s11.48,4.06,11.48,9.71C109.52,35.05,105,39.4,98,39.4S86.56,35.05,86.56,29.4Zm2.07,15.94h18.81V99H88.63Z"/><path class="cls-2" d="M123.09,25.54H141.9V99H123.09Z"/><path class="cls-2" d="M207.83,69.2V99H190.3V92.07c-2.67,5.15-8,7.82-15.84,7.82-12.86,0-20-7.23-20-16.53,0-9.9,7.22-16,23.86-16H189c-.3-5.44-4-8.51-11.39-8.51-5.14,0-10.89,1.78-14.55,4.65l-6.34-12.77c6.14-4.06,15.25-6.24,23.67-6.24C197.83,44.45,207.83,52.17,207.83,69.2ZM189,81.77V77.12H180.9c-6,0-8.22,2.18-8.22,5.45s2.58,5.44,7,5.44C183.87,88,187.53,86,189,81.77Z"/><path class="cls-2" d="M280.29,68.31V99H261.48V71.38c0-7.72-3.36-11-8.81-11-6,0-10.69,3.76-10.69,12.67V99H223.17V45.34h17.92v5.84c4.26-4.45,10.3-6.73,17-6.73C270.69,44.45,280.29,51.68,280.29,68.31Z"/></g></g></svg>