<svg id="Calque_1" data-name="Calque 1" xmlns="http://www.w3.org/2000/svg" viewBox="0 0 330 127"><defs><style>.cls-1{isolation:isolate;}.cls-2{fill:none;stroke:#ffd369;stroke-width:3px;}</style></defs><title>title-lycee</title><g id="Lycée" class="cls-1"><g class="cls-1"><path class="cls-2" d="M9.93,29.7h19.6V83.46H62.6V99H9.93Z"/><path class="cls-2" d="M125.86,45.34l-23.17,55.84C97.05,115,89.13,119.1,78.54,119.1c-5.65,0-12-1.88-15.55-4.85l6.54-13.17a12.77,12.77,0,0,0,8.31,3.17c3.67,0,5.74-1.39,7.33-4.56l-23-54.35H81.51L94.67,78.11l13.27-32.77Z"/><path class="cls-2" d="M129.32,72.07c0-16.13,12.77-27.62,30.79-27.62,12.18,0,21.48,5.45,25.15,14.75L170.7,66.63c-2.57-5-6.33-7.23-10.69-7.23-6.53,0-11.68,4.55-11.68,12.67,0,8.32,5.15,12.87,11.68,12.87,4.36,0,8.12-2.18,10.69-7.23l14.56,7.43c-3.67,9.31-13,14.75-25.15,14.75C142.09,99.89,129.32,88.41,129.32,72.07Z"/><path class="cls-2" d="M249.8,76.92h-39c1.58,5.45,6.24,8.62,13.17,8.62a17.18,17.18,0,0,0,12.37-4.66l9.9,10.3c-5.15,5.74-12.67,8.71-22.87,8.71-19.1,0-31.48-11.78-31.48-27.82s12.57-27.62,29.5-27.62c15.84,0,28.71,10.1,28.71,27.82C250.1,73.66,249.9,75.44,249.8,76.92ZM210.5,67h22a10.6,10.6,0,0,0-11-9.2C215.65,57.82,211.59,61.38,210.5,67Zm14.26-28.11H211.29l13.27-15h18.81Z"/><path class="cls-2" d="M316.83,76.92h-39c1.59,5.45,6.24,8.62,13.17,8.62a17.17,17.17,0,0,0,12.37-4.66l9.9,10.3c-5.14,5.74-12.67,8.71-22.87,8.71-19.1,0-31.48-11.78-31.48-27.82s12.58-27.62,29.51-27.62c15.83,0,28.7,10.1,28.7,27.82C317.12,73.66,316.93,75.44,316.83,76.92ZM277.53,67h22a10.6,10.6,0,0,0-11-9.2C282.67,57.82,278.61,61.38,277.53,67Z"/></g></g></svg>