<svg id="Calque_1" data-name="Calque 1" xmlns="http://www.w3.org/2000/svg" viewBox="0 0 1563 251"><defs><style>.cls-1{isolation:isolate;}.cls-2{fill:none;stroke:#cf7500;stroke-width:4px;}</style></defs><title>title-exp</title><g id="EXPÉRIENCES" class="cls-1"><g class="cls-1"><path class="cls-2" d="M129.77,166.55V197H17.93V57.7H127.18V88.14H56.94v23.49h61.89v29.45H56.94v25.47Z"/><path class="cls-2" d="M245.39,197l-28.86-43.18L188.08,197h-45l50.75-70.45L145.29,57.7h44.38l27.86,40.2L245,57.7h42.59L239,125l51.74,72Z"/><path class="cls-2" d="M432.45,109.24c0,31.64-23.88,51.34-61.89,51.34H346.28V197h-39.4V57.7h63.68C408.57,57.7,432.45,77.4,432.45,109.24Zm-39.8,0c0-12.94-8.16-20.5-24.48-20.5H346.28v40.8h21.89C384.49,129.54,392.65,122,392.65,109.24Z"/><path class="cls-2" d="M570.36,166.55V197H458.52V57.7H567.77V88.14H497.52v23.49h61.89v29.45H497.52v25.47ZM520.81,46.35H493.74L520.41,16.1h37.81Z"/><path class="cls-2" d="M660.11,160h-21.5v37h-39.4V57.7h63.68c38,0,61.89,19.7,61.89,51.54,0,20.5-9.95,35.62-27.26,44L727.57,197H685.38Zm.39-71.25H638.61v40.8H660.5c16.32,0,24.48-7.57,24.48-20.3C685,96.3,676.82,88.74,660.5,88.74Z"/><path class="cls-2" d="M753.43,57.7h39.41V197H753.43Z"/><path class="cls-2" d="M939.7,166.55V197H827.86V57.7H937.11V88.14H866.86v23.49h61.89v29.45H866.86v25.47Z"/><path class="cls-2" d="M1101.09,57.7V197h-32.44l-61.49-74.23V197H968.55V57.7H1001l61.49,74.23V57.7Z"/><path class="cls-2" d="M1128.75,127.35c0-42.39,32.43-72.44,76.61-72.44,25.67,0,46.37,9.35,59.9,26.27l-25.07,22.69c-8.76-10.55-19.5-16.32-32.84-16.32-22.88,0-38.8,15.92-38.8,39.8s15.92,39.8,38.8,39.8c13.34,0,24.08-5.77,32.84-16.32l25.07,22.69c-13.53,16.91-34.23,26.27-59.9,26.27C1161.18,199.79,1128.75,169.74,1128.75,127.35Z"/><path class="cls-2" d="M1401.58,166.55V197H1289.73V57.7H1399V88.14h-70.25v23.49h61.89v29.45h-61.89v25.47Z"/><path class="cls-2" d="M1420.67,184.46l12.94-29.05a87.84,87.84,0,0,0,46,13.73c16.32,0,22.69-4.58,22.69-11.34,0-22.09-79.21-6-79.21-57.72,0-24.87,20.3-45.17,61.69-45.17,18.11,0,36.82,4.18,50.55,12.14L1523.16,96.3c-13.33-7.16-26.46-10.74-38.6-10.74-16.52,0-22.49,5.57-22.49,12.53,0,21.3,79,5.38,79,56.72,0,24.28-20.3,45-61.69,45C1456.5,199.79,1433.81,193.62,1420.67,184.46Z"/></g></g></svg>