<svg id="Calque_1" data-name="Calque 1" xmlns="http://www.w3.org/2000/svg" viewBox="0 0 600 127"><defs><style>.cls-1{isolation:isolate;}.cls-2{fill:none;stroke:#ffd369;stroke-width:3px;}</style></defs><title>title-iut-troyes</title><g id="IUT_Troyes" data-name="IUT Troyes" class="cls-1"><g class="cls-1"><path class="cls-2" d="M9.93,29.7h19.6V99H9.93Z"/><path class="cls-2" d="M46.36,68.11V29.7H66V67.52c0,11.88,5,16.63,13.17,16.63S92.2,79.4,92.2,67.52V29.7h19.3V68.11c0,20.69-12.08,32.28-32.57,32.28S46.36,88.8,46.36,68.11Z"/><path class="cls-2" d="M141.9,45.24H120.61V29.7h62.07V45.24H161.5V99H141.9Z"/><path class="cls-2" d="M240.5,45.24H219.21V29.7h62.08V45.24H260.1V99H240.5Z"/><path class="cls-2" d="M326,44.45V61.38a34.13,34.13,0,0,0-4.26-.3c-7.62,0-12.87,3.86-12.87,13.27V99H290.1V45.34H308v6.44C311.88,46.93,318.12,44.45,326,44.45Z"/><path class="cls-2" d="M333.36,72.07c0-16.13,12.77-27.62,30.3-27.62,17.72,0,30.29,11.49,30.29,27.62s-12.57,27.82-30.29,27.82C346.13,99.89,333.36,88.31,333.36,72.07Zm41.58,0c0-8.12-4.85-12.67-11.28-12.67S352.37,64,352.37,72.07s4.95,12.87,11.29,12.87S374.94,80.29,374.94,72.07Z"/><path class="cls-2" d="M461.17,45.34,438,101.18c-5.64,13.86-13.56,17.92-24.15,17.92-5.65,0-12-1.88-15.55-4.85l6.54-13.17a12.77,12.77,0,0,0,8.31,3.17c3.67,0,5.75-1.39,7.33-4.56l-23-54.35h19.31L430,78.11l13.27-32.77Z"/><path class="cls-2" d="M522.55,76.92h-39c1.59,5.45,6.24,8.62,13.17,8.62a17.17,17.17,0,0,0,12.37-4.66l9.9,10.3c-5.14,5.74-12.67,8.71-22.86,8.71-19.11,0-31.49-11.78-31.49-27.82s12.58-27.62,29.51-27.62c15.84,0,28.71,10.1,28.71,27.82C522.85,73.66,522.65,75.44,522.55,76.92ZM483.25,67h22a10.59,10.59,0,0,0-11-9.2C488.39,57.82,484.33,61.38,483.25,67Z"/><path class="cls-2" d="M530.77,94.35l5.64-12.87c5,3.07,12.18,5,18.71,5,6.34,0,8.42-1.39,8.42-3.67,0-7.22-31.68,1-31.68-20.49,0-10.1,9.3-17.82,26.13-17.82,7.52,0,15.84,1.59,21.19,4.56l-5.65,12.77a31.42,31.42,0,0,0-15.44-4c-6.34,0-8.61,1.78-8.61,3.76,0,7.42,31.58-.6,31.58,20.69,0,9.9-9.11,17.62-26.53,17.62C545.42,99.89,536,97.61,530.77,94.35Z"/></g></g></svg>