<svg id="Calque_1" data-name="Calque 1" xmlns="http://www.w3.org/2000/svg" viewBox="0 0 926 127"><defs><style>.cls-1{isolation:isolate;}.cls-2{fill:none;stroke:#ffd369;stroke-width:3px;}</style></defs><title>title-ecv</title><g id="Ecv_digital_Paris" data-name="Ecv digital Paris" class="cls-1"><g class="cls-1"><path class="cls-2" d="M65.57,83.85V99H9.93V29.7H64.28V44.85H29.33V56.53H60.12V71.18H29.33V83.85Z"/><path class="cls-2" d="M75.47,72.07c0-16.13,12.77-27.62,30.79-27.62,12.17,0,21.48,5.45,25.14,14.75l-14.55,7.43c-2.57-5-6.34-7.23-10.69-7.23-6.54,0-11.68,4.55-11.68,12.67,0,8.32,5.14,12.87,11.68,12.87,4.35,0,8.12-2.18,10.69-7.23l14.55,7.43c-3.66,9.31-13,14.75-25.14,14.75C88.24,99.89,75.47,88.41,75.47,72.07Z"/><path class="cls-2" d="M197.53,45.34,175.36,99H156L133.88,45.34h19.3l12.87,32.77,13.57-32.77Z"/><path class="cls-2" d="M295.15,25.54V99H277.23V93.65c-3.57,4.26-8.81,6.24-15.74,6.24-14.66,0-26.44-10.69-26.44-27.82s11.78-27.62,26.44-27.62c6.23,0,11.28,1.78,14.85,5.55V25.54ZM276.63,72.07c0-8.12-4.85-12.67-11.18-12.67S254.16,64,254.16,72.07,259,84.94,265.45,84.94,276.63,80.29,276.63,72.07Z"/><path class="cls-2" d="M308.61,29.4c0-5.64,4.55-10,11.48-10s11.49,4.06,11.49,9.71c0,5.94-4.56,10.29-11.49,10.29S308.61,35.05,308.61,29.4Zm2.08,15.94H329.5V99H310.69Z"/><path class="cls-2" d="M402.86,45.34V89.2c0,20.29-11.49,29.9-31.48,29.9-10.3,0-20.1-2.38-26.64-7l6.84-13.17c4.45,3.56,11.78,5.74,18.11,5.74,10.1,0,14.36-4.55,14.36-13V89.89c-3.67,4.26-9.11,6.34-15.94,6.34-14.26,0-26.34-10.1-26.34-25.94s12.08-25.84,26.34-25.84c7.42,0,13.17,2.38,16.83,7.43V45.34Zm-18.61,25c0-6.53-5-10.89-11.69-10.89s-11.78,4.36-11.78,10.89,5.05,11,11.78,11S384.25,76.82,384.25,70.29Z"/><path class="cls-2" d="M416.32,29.4c0-5.64,4.55-10,11.48-10s11.49,4.06,11.49,9.71c0,5.94-4.56,10.29-11.49,10.29S416.32,35.05,416.32,29.4Zm2.08,15.94h18.81V99H418.4Z"/><path class="cls-2" d="M489.88,96.82c-3.27,2.08-8.12,3.07-13.07,3.07C463.05,99.89,455,93.16,455,79.4v-18h-7.82V47.32H455v-14h18.81v14h12.27V61.38H473.84V79.2c0,4,2.28,6.14,5.64,6.14a10.35,10.35,0,0,0,5.74-1.68Z"/><path class="cls-2" d="M550.86,69.2V99H533.34V92.07c-2.68,5.15-8,7.82-15.84,7.82-12.87,0-20-7.23-20-16.53,0-9.9,7.23-16,23.86-16h10.69c-.3-5.44-4-8.51-11.39-8.51-5.14,0-10.89,1.78-14.55,4.65l-6.33-12.77c6.13-4.06,15.24-6.24,23.66-6.24C540.86,44.45,550.86,52.17,550.86,69.2ZM532.05,81.77V77.12h-8.12c-6,0-8.22,2.18-8.22,5.45s2.58,5.44,7,5.44C526.9,88,530.56,86,532.05,81.77Z"/><path class="cls-2" d="M566.2,25.54H585V99H566.2Z"/><path class="cls-2" d="M696.29,55.34c0,15.74-11.88,25.54-30.79,25.54H653.42V99h-19.6V29.7H665.5C684.41,29.7,696.29,39.5,696.29,55.34Zm-19.8,0c0-6.43-4.06-10.2-12.18-10.2H653.42v20.3h10.89C672.43,65.44,676.49,61.68,676.49,55.34Z"/><path class="cls-2" d="M758.16,69.2V99H740.64V92.07c-2.67,5.15-8,7.82-15.84,7.82-12.87,0-20-7.23-20-16.53,0-9.9,7.23-16,23.86-16h10.69c-.3-5.44-4-8.51-11.38-8.51a25,25,0,0,0-14.56,4.65l-6.33-12.77c6.14-4.06,15.24-6.24,23.66-6.24C748.16,44.45,758.16,52.17,758.16,69.2ZM739.35,81.77V77.12h-8.12c-6,0-8.21,2.18-8.21,5.45s2.57,5.44,7,5.44C734.2,88,737.87,86,739.35,81.77Z"/><path class="cls-2" d="M809.44,44.45V61.38a33.85,33.85,0,0,0-4.25-.3c-7.63,0-12.87,3.86-12.87,13.27V99H773.51V45.34h17.91v6.44C795.29,46.93,801.52,44.45,809.44,44.45Z"/><path class="cls-2" d="M818.55,29.4c0-5.64,4.55-10,11.48-10s11.49,4.06,11.49,9.71c0,5.94-4.56,10.29-11.49,10.29S818.55,35.05,818.55,29.4Zm2.08,15.94h18.81V99H820.63Z"/><path class="cls-2" d="M850.82,94.35l5.65-12.87c4.95,3.07,12.17,5,18.71,5,6.33,0,8.41-1.39,8.41-3.67,0-7.22-31.68,1-31.68-20.49,0-10.1,9.31-17.82,26.14-17.82,7.52,0,15.84,1.59,21.18,4.56l-5.64,12.77a31.44,31.44,0,0,0-15.44-4c-6.34,0-8.62,1.78-8.62,3.76,0,7.42,31.58-.6,31.58,20.69,0,9.9-9.1,17.62-26.53,17.62C865.47,99.89,856.07,97.61,850.82,94.35Z"/></g></g></svg>