<svg id="Calque_1" data-name="Calque 1" xmlns="http://www.w3.org/2000/svg" viewBox="0 0 1264 127"><defs><style>.cls-1{isolation:isolate;}.cls-2{fill:none;stroke:#cf7500;stroke-width:3px;}</style></defs><title>title-substances</title><g id="SUBSTANCES_ACTIVES" data-name="SUBSTANCES ACTIVES" class="cls-1"><g class="cls-1"><path class="cls-2" d="M5.08,92.76l6.43-14.45a43.7,43.7,0,0,0,22.87,6.83c8.12,0,11.29-2.28,11.29-5.64,0-11-39.4-3-39.4-28.71C6.27,38.41,16.36,28.31,37,28.31c9,0,18.31,2.08,25.14,6l-6,14.56c-6.63-3.57-13.16-5.35-19.2-5.35-8.22,0-11.19,2.77-11.19,6.24C25.67,60.39,65,52.47,65,78c0,12.08-10.09,22.38-30.69,22.38C22.9,100.39,11.61,97.32,5.08,92.76Z"/><path class="cls-2" d="M76.85,68.11V29.7h19.6V67.52c0,11.88,5,16.63,13.17,16.63s13.07-4.75,13.07-16.63V29.7H142V68.11c0,20.69-12.07,32.28-32.57,32.28S76.85,88.8,76.85,68.11Z"/><path class="cls-2" d="M224.66,80c0,12-9.9,19-28.51,19H158.73V29.7h35.44c18.21,0,27.12,7.43,27.12,18.12a16.37,16.37,0,0,1-9.3,15C219.81,65.64,224.66,71.58,224.66,80ZM178.13,43.86V57.22h13.46c6.54,0,9.9-2.27,9.9-6.73s-3.36-6.63-9.9-6.63Zm26.73,34c0-4.75-3.57-7-10.3-7H178.13v14h16.43C201.29,84.84,204.86,82.57,204.86,77.81Z"/><path class="cls-2" d="M233.47,92.76l6.44-14.45a43.63,43.63,0,0,0,22.86,6.83c8.12,0,11.29-2.28,11.29-5.64,0-11-39.4-3-39.4-28.71,0-12.38,10.1-22.48,30.69-22.48,9,0,18.31,2.08,25.14,6l-6,14.56c-6.64-3.57-13.17-5.35-19.21-5.35-8.22,0-11.19,2.77-11.19,6.24,0,10.59,39.3,2.67,39.3,28.21,0,12.08-10.09,22.38-30.69,22.38C251.29,100.39,240,97.32,233.47,92.76Z"/><path class="cls-2" d="M319.6,45.24H298.31V29.7h62.08V45.24H339.2V99H319.6Z"/><path class="cls-2" d="M414.14,85.54h-29.3L379.4,99h-20L390,29.7h19.3L440,99H419.59ZM408.4,71.08l-8.91-22.17-8.91,22.17Z"/><path class="cls-2" d="M514.93,29.7V99H498.79L468.2,62.07V99H449V29.7h16.14l30.59,36.93V29.7Z"/><path class="cls-2" d="M528.69,64.35c0-21.09,16.13-36,38.11-36,12.77,0,23.07,4.66,29.8,13.07L584.13,52.67c-4.36-5.25-9.71-8.12-16.34-8.12-11.38,0-19.3,7.92-19.3,19.8s7.92,19.8,19.3,19.8c6.63,0,12-2.87,16.34-8.12L596.6,87.32c-6.73,8.41-17,13.07-29.8,13.07C544.82,100.39,528.69,85.44,528.69,64.35Z"/><path class="cls-2" d="M664.42,83.85V99H608.78V29.7h54.35V44.85h-35V56.53H659V71.18H628.18V83.85Z"/><path class="cls-2" d="M673.92,92.76l6.43-14.45a43.72,43.72,0,0,0,22.87,6.83c8.12,0,11.29-2.28,11.29-5.64,0-11-39.4-3-39.4-28.71,0-12.38,10.1-22.48,30.69-22.48,9,0,18.31,2.08,25.14,6l-6,14.56c-6.63-3.57-13.16-5.35-19.2-5.35-8.22,0-11.19,2.77-11.19,6.24,0,10.59,39.3,2.67,39.3,28.21,0,12.08-10.09,22.38-30.69,22.38C691.74,100.39,680.45,97.32,673.92,92.76Z"/><path class="cls-2" d="M825,85.54h-29.3L790.24,99h-20l30.59-69.3h19.31L850.83,99H830.44Zm-5.74-14.46-8.91-22.17-8.91,22.17Z"/><path class="cls-2" d="M855.29,64.35c0-21.09,16.13-36,38.11-36,12.77,0,23.07,4.66,29.8,13.07L910.72,52.67c-4.35-5.25-9.7-8.12-16.33-8.12-11.39,0-19.31,7.92-19.31,19.8s7.92,19.8,19.31,19.8c6.63,0,12-2.87,16.33-8.12L923.2,87.32c-6.73,8.41-17,13.07-29.8,13.07C871.42,100.39,855.29,85.44,855.29,64.35Z"/><path class="cls-2" d="M949.53,45.24H928.25V29.7h62.07V45.24H969.13V99h-19.6Z"/><path class="cls-2" d="M1001.11,29.7h19.6V99h-19.6Z"/><path class="cls-2" d="M1108.23,29.7,1078.53,99h-19.31l-29.6-69.3h21.19l18.81,45.14,19.2-45.14Z"/><path class="cls-2" d="M1171.39,83.85V99h-55.64V29.7h54.35V44.85h-34.94V56.53h30.78V71.18h-30.78V83.85Z"/><path class="cls-2" d="M1180.89,92.76l6.44-14.45a43.67,43.67,0,0,0,22.87,6.83c8.11,0,11.28-2.28,11.28-5.64,0-11-39.4-3-39.4-28.71,0-12.38,10.1-22.48,30.69-22.48,9,0,18.31,2.08,25.15,6l-6,14.56c-6.64-3.57-13.17-5.35-19.21-5.35-8.22,0-11.19,2.77-11.19,6.24,0,10.59,39.31,2.67,39.31,28.21,0,12.08-10.1,22.38-30.69,22.38C1198.71,100.39,1187.43,97.32,1180.89,92.76Z"/></g></g></svg>