<svg id="Calque_1" data-name="Calque 1" xmlns="http://www.w3.org/2000/svg" viewBox="0 0 966 127"><defs><style>.cls-1{isolation:isolate;}.cls-2{fill:none;stroke:#cf7500;stroke-width:3px;}</style></defs><title>Aono</title><g id="AONO_X_PROBOT" data-name="AONO X PROBOT" class="cls-1"><g class="cls-1"><path class="cls-2" d="M58.36,85.54H29.06L23.61,99h-20L34.2,29.7H53.51L84.2,99H63.81ZM52.62,71.08,43.71,48.91,34.8,71.08Z"/><path class="cls-2" d="M88.66,64.35c0-20.79,16.33-36,38.51-36s38.51,15.25,38.51,36-16.34,36-38.51,36S88.66,85.14,88.66,64.35Zm57.22,0c0-12-8.22-19.8-18.71-19.8s-18.71,7.82-18.71,19.8,8.21,19.8,18.71,19.8S145.88,76.33,145.88,64.35Z"/><path class="cls-2" d="M245.37,29.7V99H229.23L198.64,62.07V99h-19.2V29.7h16.13l30.6,36.93V29.7Z"/><path class="cls-2" d="M259.13,64.35c0-20.79,16.34-36,38.51-36s38.51,15.25,38.51,36-16.33,36-38.51,36S259.13,85.14,259.13,64.35Zm57.22,0c0-12-8.21-19.8-18.71-19.8s-18.71,7.82-18.71,19.8,8.22,19.8,18.71,19.8S316.35,76.33,316.35,64.35Z"/><path class="cls-2" d="M425.94,99,411.59,77.52,397.43,99H375.06L400.3,64,376.15,29.7h22.07l13.86,20,13.67-20h21.18L422.78,63.16,448.52,99Z"/><path class="cls-2" d="M553.36,55.34c0,15.74-11.88,25.54-30.79,25.54H510.49V99h-19.6V29.7h31.68C541.48,29.7,553.36,39.5,553.36,55.34Zm-19.8,0c0-6.43-4.06-10.2-12.18-10.2H510.49v20.3h10.89C529.5,65.44,533.56,61.68,533.56,55.34Z"/><path class="cls-2" d="M596.62,80.59H585.93V99h-19.6V29.7H598c18.91,0,30.78,9.8,30.78,25.64,0,10.2-4.95,17.72-13.56,21.88L630.18,99h-21Zm.2-35.45H585.93v20.3h10.89c8.12,0,12.18-3.76,12.18-10.1S604.94,45.14,596.82,45.14Z"/><path class="cls-2" d="M639.49,64.35c0-20.79,16.33-36,38.51-36s38.51,15.25,38.51,36-16.34,36-38.51,36S639.49,85.14,639.49,64.35Zm57.22,0c0-12-8.22-19.8-18.71-19.8s-18.71,7.82-18.71,19.8,8.21,19.8,18.71,19.8S696.71,76.33,696.71,64.35Z"/><path class="cls-2" d="M796.2,80c0,12-9.9,19-28.51,19H730.27V29.7h35.44c18.22,0,27.13,7.43,27.13,18.12a16.37,16.37,0,0,1-9.31,15C791.35,65.64,796.2,71.58,796.2,80ZM749.67,43.86V57.22h13.47c6.53,0,9.9-2.27,9.9-6.73s-3.37-6.63-9.9-6.63Zm26.73,34c0-4.75-3.56-7-10.29-7H749.67v14h16.44C772.84,84.84,776.4,82.57,776.4,77.81Z"/><path class="cls-2" d="M806.3,64.35c0-20.79,16.34-36,38.51-36s38.51,15.25,38.51,36-16.33,36-38.51,36S806.3,85.14,806.3,64.35Zm57.22,0c0-12-8.22-19.8-18.71-19.8s-18.71,7.82-18.71,19.8,8.22,19.8,18.71,19.8S863.52,76.33,863.52,64.35Z"/><path class="cls-2" d="M910.84,45.24H889.56V29.7h62.07V45.24H930.45V99H910.84Z"/></g></g></svg>