<svg id="Calque_1" data-name="Calque 1" xmlns="http://www.w3.org/2000/svg" viewBox="0 0 376 127"><defs><style>.cls-1{isolation:isolate;}.cls-2{fill:none;stroke:#fff;stroke-width:3px;}</style></defs><title>title-avenir</title><g id="Avenir" class="cls-1"><g class="cls-1"><path class="cls-2" d="M58.36,85.54H29.06L23.61,99h-20L34.2,29.7H53.51L84.2,99H63.81ZM52.62,71.08,43.71,48.91,34.8,71.08Z"/><path class="cls-2" d="M146,45.34,123.8,99H104.4L82.32,45.34h19.3l12.87,32.77,13.57-32.77Z"/><path class="cls-2" d="M207.36,76.92h-39c1.58,5.45,6.24,8.62,13.17,8.62a17.18,17.18,0,0,0,12.37-4.66l9.9,10.3c-5.15,5.74-12.67,8.71-22.87,8.71-19.1,0-31.48-11.78-31.48-27.82S162,44.45,178.94,44.45c15.84,0,28.71,10.1,28.71,27.82C207.65,73.66,207.46,75.44,207.36,76.92ZM168.05,67h22a10.6,10.6,0,0,0-11-9.2C173.2,57.82,169.14,61.38,168.05,67Z"/><path class="cls-2" d="M277,68.31V99H258.14V71.38c0-7.72-3.36-11-8.81-11-6,0-10.69,3.76-10.69,12.67V99H219.83V45.34h17.92v5.84c4.26-4.45,10.29-6.73,17-6.73C267.35,44.45,277,51.68,277,68.31Z"/><path class="cls-2" d="M290.12,29.4c0-5.64,4.55-10,11.48-10s11.49,4.06,11.49,9.71c0,5.94-4.56,10.29-11.49,10.29S290.12,35.05,290.12,29.4Zm2.08,15.94H311V99H292.2Z"/><path class="cls-2" d="M362.59,44.45V61.38a34.13,34.13,0,0,0-4.26-.3c-7.62,0-12.87,3.86-12.87,13.27V99H326.65V45.34h17.92v6.44C348.43,46.93,354.67,44.45,362.59,44.45Z"/></g></g></svg>