<svg id="Calque_1" data-name="Calque 1" xmlns="http://www.w3.org/2000/svg" viewBox="0 0 1518 251"><defs><style>.cls-1{isolation:isolate;}.cls-2{fill:none;stroke:#ffd369;stroke-width:4px;}</style></defs><title>title-formation</title><g id="FORMATIONS" class="cls-1"><g class="cls-1"><path class="cls-2" d="M57.33,88.14v30.65h61.5v30.45H57.33V197H17.93V57.7H127.18V88.14Z"/><path class="cls-2" d="M144.3,127.35c0-41.79,32.83-72.44,77.41-72.44s77.41,30.65,77.41,72.44-32.83,72.44-77.41,72.44S144.3,169.14,144.3,127.35Zm115,0c0-24.08-16.52-39.8-37.61-39.8s-37.61,15.72-37.61,39.8,16.51,39.8,37.61,39.8S259.32,151.43,259.32,127.35Z"/><path class="cls-2" d="M387.67,160H366.18v37h-39.4V57.7h63.68c38,0,61.89,19.7,61.89,51.54,0,20.5-10,35.62-27.26,44L455.14,197H413Zm.4-71.25H366.18v40.8h21.89c16.32,0,24.48-7.57,24.48-20.3C412.55,96.3,404.39,88.74,388.07,88.74Z"/><path class="cls-2" d="M606.77,197l-.4-73.83-35.82,60.1H553l-35.62-58.11V197H481V57.7h32.44l48.95,80.39L610.16,57.7h32.43L643,197Z"/><path class="cls-2" d="M771.14,169.94h-58.9l-11,27.06h-40.2l61.5-139.3h38.8L823.08,197h-41ZM759.6,140.88,741.69,96.3l-17.91,44.58Z"/><path class="cls-2" d="M863.88,88.94H821.09V57.7H945.87V88.94H903.28V197h-39.4Z"/><path class="cls-2" d="M967.55,57.7H1007V197H967.55Z"/><path class="cls-2" d="M1034.81,127.35c0-41.79,32.84-72.44,77.42-72.44s77.41,30.65,77.41,72.44-32.84,72.44-77.41,72.44S1034.81,169.14,1034.81,127.35Zm115,0c0-24.08-16.52-39.8-37.61-39.8s-37.61,15.72-37.61,39.8,16.51,39.8,37.61,39.8S1149.84,151.43,1149.84,127.35Z"/><path class="cls-2" d="M1349.83,57.7V197H1317.4l-61.5-74.23V197h-38.6V57.7h32.43l61.5,74.23V57.7Z"/><path class="cls-2" d="M1374.9,184.46l12.94-29.05a87.84,87.84,0,0,0,46,13.73c16.32,0,22.69-4.58,22.69-11.34,0-22.09-79.21-6-79.21-57.72,0-24.87,20.3-45.17,61.69-45.17,18.11,0,36.82,4.18,50.55,12.14L1477.39,96.3c-13.33-7.16-26.47-10.74-38.61-10.74-16.51,0-22.48,5.57-22.48,12.53,0,21.3,79,5.38,79,56.72,0,24.28-20.3,45-61.69,45C1410.72,199.79,1388,193.62,1374.9,184.46Z"/></g></g></svg>