<svg id="Calque_1" data-name="Calque 1" xmlns="http://www.w3.org/2000/svg" viewBox="0 0 1120 251"><defs><style>.cls-1{isolation:isolate;}.cls-2{fill:none;stroke:#fff;stroke-width:4px;}</style></defs><title>Plan de travail 1</title><g id="BONJOUR" class="cls-1"><g class="cls-1"><path class="cls-2" d="M150.47,158.79c0,24.08-19.9,38.21-57.32,38.21H17.93V57.7H89.17c36.62,0,54.53,14.92,54.53,36.41,0,13.34-6.76,24.08-18.7,30.25C140.72,129.94,150.47,141.88,150.47,158.79ZM56.94,86.15V113H84c13.13,0,19.9-4.58,19.9-13.53,0-8.76-6.77-13.34-19.9-13.34Zm53.73,68.26c0-9.55-7.17-14.13-20.7-14.13h-33v28.26H90C103.5,168.54,110.67,164,110.67,154.41Z"/><path class="cls-2" d="M170.76,127.35c0-41.79,32.84-72.44,77.41-72.44s77.42,30.65,77.42,72.44-32.84,72.44-77.42,72.44S170.76,169.14,170.76,127.35Zm115,0c0-24.08-16.52-39.8-37.62-39.8s-37.61,15.72-37.61,39.8,16.52,39.8,37.61,39.8S285.79,151.43,285.79,127.35Z"/><path class="cls-2" d="M485.78,57.7V197H453.34l-61.49-74.23V197H353.24V57.7h32.44l61.49,74.23V57.7Z"/><path class="cls-2" d="M502.69,179.29l21.49-25.47c7.37,9.55,15.13,14.52,24.08,14.52,11.35,0,17.52-7,17.52-20.3V88.14H517.62V57.7h87.16v88c0,36.22-18.7,54.13-53.73,54.13C530.75,199.79,513.44,192.62,502.69,179.29Z"/><path class="cls-2" d="M631.25,127.35c0-41.79,32.83-72.44,77.41-72.44s77.41,30.65,77.41,72.44-32.84,72.44-77.41,72.44S631.25,169.14,631.25,127.35Zm115,0c0-24.08-16.52-39.8-37.61-39.8s-37.61,15.72-37.61,39.8,16.51,39.8,37.61,39.8S746.27,151.43,746.27,127.35Z"/><path class="cls-2" d="M812.53,134.91V57.7h39.41v76c0,23.88,9.95,33.43,26.46,33.43,16.32,0,26.27-9.55,26.27-33.43v-76h38.81v77.21c0,41.59-24.28,64.88-65.48,64.88S812.53,176.5,812.53,134.91Z"/><path class="cls-2" d="M1038,160h-21.49v37H977.1V57.7h63.69c38,0,61.89,19.7,61.89,51.54,0,20.5-10,35.62-27.27,44l30,43.78h-42.19Zm.4-71.25h-21.89v40.8h21.89c16.32,0,24.48-7.57,24.48-20.3C1062.88,96.3,1054.72,88.74,1038.4,88.74Z"/></g></g></svg>