<svg id="Calque_1" data-name="Calque 1" xmlns="http://www.w3.org/2000/svg" viewBox="0 0 705 251"><defs><style>.cls-1{isolation:isolate;}.cls-2{fill:none;stroke:#fff;stroke-width:4px;}</style></defs><title>title-bilan</title><g id="BILAN" class="cls-1"><g class="cls-1"><path class="cls-2" d="M150.47,158.79c0,24.08-19.9,38.21-57.32,38.21H17.93V57.7H89.17c36.62,0,54.53,14.92,54.53,36.41,0,13.34-6.76,24.08-18.7,30.25C140.72,129.94,150.47,141.88,150.47,158.79ZM56.94,86.15V113H84c13.13,0,19.9-4.58,19.9-13.53,0-8.76-6.77-13.34-19.9-13.34Zm53.73,68.26c0-9.55-7.17-14.13-20.7-14.13h-33v28.26H90C103.5,168.54,110.67,164,110.67,154.41Z"/><path class="cls-2" d="M177.93,57.7h39.4V197h-39.4Z"/><path class="cls-2" d="M252.35,57.7h39.4V165.76h66.47V197H252.35Z"/><path class="cls-2" d="M475.63,169.94H416.72L405.78,197h-40.2L427.07,57.7h38.81L527.57,197h-41Zm-11.55-29.06L446.17,96.3l-17.91,44.58Z"/><path class="cls-2" d="M678.21,57.7V197H645.77l-61.49-74.23V197H545.67V57.7h32.44l61.49,74.23V57.7Z"/></g></g></svg>