<svg id="Calque_1" data-name="Calque 1" xmlns="http://www.w3.org/2000/svg" viewBox="0 0 801 127"><defs><style>.cls-1{isolation:isolate;}.cls-2{fill:none;stroke:#cf7500;stroke-width:3px;}</style></defs><title>title-inovi</title><g id="InoviZELIFT" class="cls-1"><g class="cls-1"><path class="cls-2" d="M9.93,29.7h19.6V99H9.93Z"/><path class="cls-2" d="M103.19,68.31V99H84.38V71.38c0-7.72-3.37-11-8.81-11-6,0-10.7,3.76-10.7,12.67V99H46.06V45.34H64v5.84c4.26-4.45,10.3-6.73,17-6.73C93.58,44.45,103.19,51.68,103.19,68.31Z"/><path class="cls-2" d="M115.86,72.07c0-16.13,12.77-27.62,30.29-27.62,17.72,0,30.3,11.49,30.3,27.62s-12.58,27.82-30.3,27.82C128.63,99.89,115.86,88.31,115.86,72.07Zm41.58,0c0-8.12-4.85-12.67-11.29-12.67S134.87,64,134.87,72.07s4.95,12.87,11.28,12.87S157.44,80.29,157.44,72.07Z"/><path class="cls-2" d="M243.67,45.34,221.49,99h-19.4L180,45.34h19.3l12.87,32.77,13.57-32.77Z"/><path class="cls-2" d="M249.9,29.4c0-5.64,4.56-10,11.49-10s11.48,4.06,11.48,9.71c0,5.94-4.55,10.29-11.48,10.29S249.9,35.05,249.9,29.4ZM252,45.34h18.81V99H252Z"/><path class="cls-2" d="M352.76,99l-9.6-14.06L332.86,99H312.47l20.39-26.83-19.8-26.83h21.19l9.5,13.57,9.9-13.57h19.9l-19.8,26.14L374.24,99Z"/><path class="cls-2" d="M475.22,83.46V99H413.15V86.72l35-41.48H414V29.7h59.7V42L438.79,83.46Z"/><path class="cls-2" d="M542.94,83.85V99H487.3V29.7h54.35V44.85H506.7V56.53h30.79V71.18H506.7V83.85Z"/><path class="cls-2" d="M557.29,29.7h19.6V83.46H610V99H557.29Z"/><path class="cls-2" d="M621.14,29.7h19.61V99H621.14Z"/><path class="cls-2" d="M677.77,44.85V60.09h30.59V75.24H677.77V99h-19.6V29.7h54.35V44.85Z"/><path class="cls-2" d="M740.44,45.24H719.15V29.7h62.07V45.24H760V99h-19.6Z"/></g></g></svg>